<svg xmlns="http://www.w3.org/2000/svg" width="900" height="900" viewBox="0 0 900 900">
  <defs>
    <pattern id="tile" width="220" height="220" patternUnits="userSpaceOnUse">
      <rect width="220" height="220" fill="#161b22"/>
      <path d="M0 0 H220 M0 55 H220 M0 110 H220 M0 165 H220 M0 220 H220" stroke="#e9eef6" stroke-opacity="0.035" stroke-width="1"/>
      <path d="M0 0 V220 M55 0 V220 M110 0 V220 M165 0 V220 M220 0 V220" stroke="#26679e" stroke-opacity="0.07" stroke-width="1"/>

      <g transform="translate(34 132)" stroke="#3e7258" stroke-opacity="0.14" fill="none" stroke-width="1.5" stroke-linecap="round" stroke-linejoin="round">
        <circle cx="0" cy="-18" r="7"/>
        <path d="M0 -10 V10 M-9 0 H9 M-6 24 L0 10 L6 24"/>
      </g>

      <g transform="translate(68 132)" stroke="#3e7258" stroke-opacity="0.14" fill="none" stroke-width="1.5" stroke-linecap="round" stroke-linejoin="round">
        <circle cx="0" cy="-18" r="7"/>
        <path d="M0 -10 V10 M-9 0 H9 M-6 24 L0 10 L6 24"/>
      </g>

      <g transform="translate(120 178)" stroke="#3e7258" stroke-opacity="0.12" fill="none" stroke-width="1.4" stroke-linecap="round" stroke-linejoin="round">
        <circle cx="0" cy="-15" r="5.6"/>
        <path d="M0 -9 V7 M-7 0 H7 M-4.8 18 L0 7 L4.8 18"/>
      </g>

      <g transform="translate(146 178)" stroke="#3e7258" stroke-opacity="0.12" fill="none" stroke-width="1.4" stroke-linecap="round" stroke-linejoin="round">
        <circle cx="0" cy="-15" r="5.6"/>
        <path d="M0 -9 V7 M-7 0 H7 M-4.8 18 L0 7 L4.8 18"/>
      </g>

      <g transform="translate(154 128)" stroke="#b98644" stroke-opacity="0.16" fill="none" stroke-width="1.5" stroke-linecap="round" stroke-linejoin="round">
        <path d="M-18 8 C-18 -8 -4 -14 8 -14 C20 -14 30 -6 30 6 C30 15 22 22 12 22 H-10 C-16 22 -20 18 -20 14"/>
        <circle cx="-4" cy="-16" r="5"/>
        <circle cx="14" cy="-16" r="5"/>
        <path d="M6 22 V30 M20 22 V30 M-6 22 V30"/>
      </g>

      <g transform="translate(52 64)" stroke="#b98644" stroke-opacity="0.13" fill="none" stroke-width="1.3" stroke-linecap="round" stroke-linejoin="round">
        <path d="M-14 6 C-14 -6 -3 -11 7 -11 C17 -11 25 -4 25 5 C25 12 18 18 10 18 H-8 C-13 18 -16 15 -16 12"/>
        <circle cx="-2" cy="-12" r="3.8"/>
        <circle cx="12" cy="-12" r="3.8"/>
        <path d="M6 18 V24 M17 18 V24 M-2 18 V24"/>
      </g>

      <g transform="translate(154 58)" fill="#b98644" fill-opacity="0.12">
        <circle cx="0" cy="0" r="5"/>
        <circle cx="-10" cy="-8" r="3.3"/>
        <circle cx="10" cy="-8" r="3.3"/>
        <circle cx="-6" cy="8" r="3.5"/>
        <circle cx="6" cy="8" r="3.5"/>
      </g>
    </pattern>
  </defs>
  <rect width="100%" height="100%" fill="url(#tile)"/>
</svg>
