<svg xmlns="http://www.w3.org/2000/svg" width="32" height="32" viewBox="0 0 32 32">
  <g fill="none" stroke-linecap="round" stroke-linejoin="round">
    <g stroke="#3e7258" stroke-width="1.7">
      <circle cx="7" cy="8" r="2.8"/>
      <path d="M7 11 V18 M3.8 14 H10.2 M5.3 21 L7 18 L8.7 21"/>
      <circle cx="13" cy="8" r="2.8"/>
      <path d="M13 11 V18 M9.8 14 H16.2 M11.3 21 L13 18 L14.7 21"/>
    </g>
    <g stroke="#b98644" stroke-width="1.6">
      <path d="M17 16 C17 11.6 20.6 9 24 9 C27.4 9 30 11.5 30 15 C30 17.8 28 20 25.4 20 H19.8 C18.3 20 17 18.9 17 17.4"/>
      <circle cx="21.2" cy="8.4" r="1.7"/>
      <circle cx="25.8" cy="8.4" r="1.7"/>
      <path d="M22.2 20 V24 M26.3 20 V24 M19.2 20 V24"/>
    </g>
  </g>
</svg>
